<?xml version="1.0"?>
<svg xmlns="http://www.w3.org/2000/svg" xmlns:xlink="http://www.w3.org/1999/xlink" xmlns:svgjs="http://svgjs.com/svgjs" version="1.1" width="512" height="512" x="0" y="0" viewBox="0 0 480 480" style="enable-background:new 0 0 512 512" xml:space="preserve" class=""><g>
<g xmlns="http://www.w3.org/2000/svg">
	<g>
		<path d="M474.888,202.675l-75.016-29.104l29.776-29.776l28-28c14.152-14.152,14.152-37.168,0-51.312    c-14.144-14.152-37.168-14.152-51.312,0l-28,28l-48.648,48.648l-38.256-18.216c-3.04-1.464-6.704-0.824-9.096,1.568    l-85.648,85.648H112H83.704c-10.496,0-19.696,6.72-22.872,16.728L9.872,387.115C3.808,392.939,0,401.083,0,410.131v8    c0,4.416,3.576,8,8,8h48h368c2.288,0,4.472-0.984,5.984-2.688s2.232-3.992,1.96-6.264l-10.448-87.048H472c4.424,0,8-3.584,8-8    v-112C480,206.827,477.968,203.867,474.888,202.675z M417.656,75.787c7.904-7.904,20.784-7.904,28.688,0    c7.904,7.912,7.904,20.776,0,28.688L424,126.819l-28.688-28.688L417.656,75.787z M384,109.443l28.688,28.688l-32.8,32.8    l-49.544,49.544l-45.656,45.656H256c-17.648,0-32,14.352-32,32c0,1.504,0.168,3.04,0.416,4.6c0.128,0.872,0.296,1.72,0.496,2.576    c0.032,0.144,0.048,0.288,0.08,0.432c0.12,0.496,0.28,1.008,0.52,1.752c1.304,4.232,3.368,8.168,6.288,11.512L216,334.819    l-28.688-28.688l34.344-34.344L384,109.443z M333.808,239.635l13.248,26.496h-39.744L333.808,239.635z M201.984,343.435    l-30.312,12.992l8.664-34.648L201.984,343.435z M185.584,247.867c0.024-0.176,0.016-0.368,0.056-0.544    c0.16-0.816,0.416-1.616,0.712-2.408c0.04-0.104,0.056-0.208,0.096-0.312c0.304-0.752,0.704-1.472,1.144-2.176    c0.072-0.12,0.12-0.256,0.2-0.376c0.536-0.808,1.152-1.568,1.864-2.28l100.008-99.984l28.024,13.344L210.344,260.475    c-5.704,5.704-14.984,5.704-20.688,0c-0.712-0.712-1.328-1.472-1.864-2.28c-0.08-0.12-0.128-0.256-0.2-0.376    c-0.432-0.704-0.84-1.424-1.144-2.176c-0.04-0.104-0.056-0.208-0.096-0.312c-0.296-0.784-0.552-1.584-0.712-2.408    c-0.032-0.176-0.024-0.368-0.056-0.544C185.352,250.883,185.352,249.363,185.584,247.867z M16,410.131    c0-4.904,2.264-9.248,5.752-12.184c0.048-0.032,0.096-0.048,0.144-0.08c1.432-1.176,3.56-2.512,6.28-3.216    c0.128-0.032,0.248-0.088,0.384-0.12c0.552-0.128,1.176-0.16,1.768-0.224c0.488-0.048,0.96-0.144,1.456-0.144    c3.824,0.136,7.616,1.528,10.648,4.488c3.16,3.08,5.032,7.208,5.408,11.48H16z M55.848,389.003    c-4.624-5.216-10.848-8.944-17.976-10.28c-0.424-0.088-0.872-0.064-1.304-0.128c-1.504-0.224-3.008-0.464-4.568-0.464    c-0.008,0-0.016,0-0.016,0s-0.016,0-0.024,0c-0.24,0-0.48,0-0.72,0.008c-0.592,0.008-1.168,0.04-1.76,0.088l46.592-146.528    c1.072-3.328,4.128-5.568,7.632-5.568h17.752L55.848,389.003z M66.544,410.131l51.52-184h62.616l-2.336,2.344    c-11.944,11.944-11.944,31.368,0,43.312c1.712,1.72,3.616,3.12,5.6,4.336c0.616,0.376,1.256,0.664,1.888,0.992    c1.432,0.752,2.888,1.4,4.4,1.904c0.376,0.128,0.712,0.36,1.088,0.472l-20.976,20.976c-0.008,0.008-0.008,0.024-0.016,0.032    c-0.656,0.664-1.152,1.464-1.544,2.32c-0.104,0.232-0.192,0.456-0.272,0.688c-0.08,0.232-0.208,0.432-0.264,0.672l-16,64    c-0.744,2.952,0.256,6.064,2.568,8.032c1.472,1.264,3.32,1.92,5.184,1.92c1.064,0,2.144-0.208,3.152-0.648l55.904-23.96    c0.008,0,0.016-0.008,0.016-0.008l0.08-0.032c0.856-0.368,1.584-0.912,2.248-1.52c0.08-0.072,0.184-0.096,0.264-0.176    l23.576-23.576c0.28,0.104,0.584,0.136,0.864,0.232c1.128,0.376,2.272,0.68,3.424,0.928c0.504,0.104,0.992,0.232,1.496,0.32    c1.648,0.264,3.304,0.44,4.976,0.44h149.384l9.6,80H66.544z M464,314.131h-51.52H256c-2.88,0-5.656-0.808-8.264-2.392    c-2.168-1.32-4.048-3.224-5.784-6.16c-0.464-0.856-0.832-1.768-1.112-2.672c-0.016-0.04-0.304-0.944-0.32-0.992    c-0.352-1.416-0.52-2.648-0.52-3.784c0-8.824,7.176-16,16-16h32h72c2.776,0,5.344-1.44,6.808-3.792    c1.464-2.36,1.592-5.304,0.352-7.784l-21.424-42.84l41.784-41.784l76.48,29.68V314.131z" fill="#38b6ff" data-original="#000000" style="" class=""/>
	</g>
</g>
<g xmlns="http://www.w3.org/2000/svg">
	<g>
		
			<rect x="49.266" y="298.153" transform="matrix(0.2676 -0.9635 0.9635 0.2676 -204.1762 343.6939)" width="149.452" height="15.999" fill="#38b6ff" data-original="#000000" style="" class=""/>
	</g>
</g>
<g xmlns="http://www.w3.org/2000/svg">
</g>
<g xmlns="http://www.w3.org/2000/svg">
</g>
<g xmlns="http://www.w3.org/2000/svg">
</g>
<g xmlns="http://www.w3.org/2000/svg">
</g>
<g xmlns="http://www.w3.org/2000/svg">
</g>
<g xmlns="http://www.w3.org/2000/svg">
</g>
<g xmlns="http://www.w3.org/2000/svg">
</g>
<g xmlns="http://www.w3.org/2000/svg">
</g>
<g xmlns="http://www.w3.org/2000/svg">
</g>
<g xmlns="http://www.w3.org/2000/svg">
</g>
<g xmlns="http://www.w3.org/2000/svg">
</g>
<g xmlns="http://www.w3.org/2000/svg">
</g>
<g xmlns="http://www.w3.org/2000/svg">
</g>
<g xmlns="http://www.w3.org/2000/svg">
</g>
<g xmlns="http://www.w3.org/2000/svg">
</g>
</g></svg>
